<svg xmlns="http://www.w3.org/2000/svg" xmlns:xlink="http://www.w3.org/1999/xlink" width="430" zoomAndPan="magnify" viewBox="0 0 322.5 698.999979" height="932" preserveAspectRatio="xMidYMid meet" version="1.0"><defs><clipPath id="5c46231fee"><path d="M 131.738281 317.496094 L 144.425781 317.496094 L 144.425781 369.558594 L 131.738281 369.558594 Z M 131.738281 317.496094 " clip-rule="nonzero"/></clipPath><clipPath id="5982f8900c"><path d="M 137.964844 369.558594 C 137.933594 357.617188 136.171875 346.902344 134.316406 335.546875 C 133.394531 329.914062 132.457031 324.210938 131.738281 318.285156 L 138.144531 317.496094 C 138.859375 323.335938 139.78125 328.949219 140.691406 334.503906 C 142.503906 345.605469 144.386719 357.078125 144.425781 369.535156 Z M 137.964844 369.558594 " clip-rule="nonzero"/></clipPath><clipPath id="8f19bf7e67"><path d="M 137.964844 369.558594 C 137.933594 357.617188 136.171875 346.902344 134.316406 335.546875 C 133.394531 329.914062 132.457031 324.210938 131.738281 318.285156 L 138.144531 317.496094 C 138.859375 323.335938 139.78125 328.949219 140.691406 334.503906 C 142.503906 345.605469 144.386719 357.078125 144.425781 369.535156 L 137.964844 369.558594 " clip-rule="nonzero"/></clipPath><linearGradient x1="-0.00000173899" gradientTransform="matrix(12.687482, 0, 0, 12.687425, 131.73797, 343.525762)" y1="0" x2="0.999986" gradientUnits="userSpaceOnUse" y2="0" id="c713400b21"><stop stop-opacity="1" stop-color="rgb(24.299622%, 47.499084%, 18.798828%)" offset="0"/><stop stop-opacity="1" stop-color="rgb(24.494934%, 47.645569%, 18.798828%)" offset="0.015625"/><stop stop-opacity="1" stop-color="rgb(24.694824%, 47.795105%, 18.797302%)" offset="0.03125"/><stop stop-opacity="1" stop-color="rgb(24.699402%, 47.799683%, 18.600464%)" offset="0.0625"/><stop stop-opacity="1" stop-color="rgb(24.797058%, 47.895813%, 18.4021%)" offset="0.0703125"/><stop stop-opacity="1" stop-color="rgb(24.996948%, 48.095703%, 18.400574%)" offset="0.078125"/><stop stop-opacity="1" stop-color="rgb(25.099182%, 48.199463%, 18.597412%)" offset="0.09375"/><stop stop-opacity="1" stop-color="rgb(25.099182%, 48.199463%, 18.795776%)" offset="0.125"/><stop stop-opacity="1" stop-color="rgb(25.19989%, 48.300171%, 18.798828%)" offset="0.140625"/><stop stop-opacity="1" stop-color="rgb(25.402832%, 48.500061%, 18.798828%)" offset="0.15625"/><stop stop-opacity="1" stop-color="rgb(25.700378%, 48.599243%, 18.798828%)" offset="0.171875"/><stop stop-opacity="1" stop-color="rgb(25.897217%, 48.79303%, 18.798828%)" offset="0.1875"/><stop stop-opacity="1" stop-color="rgb(25.900269%, 48.99292%, 18.798828%)" offset="0.203125"/><stop stop-opacity="1" stop-color="rgb(26.097107%, 48.999023%, 18.798828%)" offset="0.21875"/><stop stop-opacity="1" stop-color="rgb(26.295471%, 48.999023%, 18.798828%)" offset="0.25"/><stop stop-opacity="1" stop-color="rgb(26.493835%, 49.194336%, 18.798828%)" offset="0.265625"/><stop stop-opacity="1" stop-color="rgb(26.693726%, 49.394226%, 18.798828%)" offset="0.28125"/><stop stop-opacity="1" stop-color="rgb(26.699829%, 49.398804%, 18.798828%)" offset="0.3125"/><stop stop-opacity="1" stop-color="rgb(26.795959%, 49.49646%, 18.798828%)" offset="0.320312"/><stop stop-opacity="1" stop-color="rgb(26.99585%, 49.69635%, 18.798828%)" offset="0.328125"/><stop stop-opacity="1" stop-color="rgb(27.099609%, 49.798584%, 18.798828%)" offset="0.34375"/><stop stop-opacity="1" stop-color="rgb(27.099609%, 49.803162%, 18.798828%)" offset="0.359375"/><stop stop-opacity="1" stop-color="rgb(27.099609%, 50.003052%, 18.798828%)" offset="0.375"/><stop stop-opacity="1" stop-color="rgb(27.200317%, 50.198364%, 18.798828%)" offset="0.390625"/><stop stop-opacity="1" stop-color="rgb(27.400208%, 50.19989%, 18.798828%)" offset="0.40625"/><stop stop-opacity="1" stop-color="rgb(27.644348%, 50.392151%, 18.798828%)" offset="0.4375"/><stop stop-opacity="1" stop-color="rgb(27.793884%, 50.592041%, 18.798828%)" offset="0.46875"/><stop stop-opacity="1" stop-color="rgb(27.900696%, 50.700378%, 18.798828%)" offset="0.476562"/><stop stop-opacity="1" stop-color="rgb(28.100586%, 50.900269%, 18.798828%)" offset="0.484375"/><stop stop-opacity="1" stop-color="rgb(28.199768%, 50.999451%, 18.798828%)" offset="0.5"/><stop stop-opacity="1" stop-color="rgb(28.199768%, 50.999451%, 18.798828%)" offset="0.515625"/><stop stop-opacity="1" stop-color="rgb(28.297424%, 51.098633%, 18.798828%)" offset="0.523438"/><stop stop-opacity="1" stop-color="rgb(28.497314%, 51.298523%, 18.798828%)" offset="0.53125"/><stop stop-opacity="1" stop-color="rgb(28.599548%, 51.399231%, 18.798828%)" offset="0.5625"/><stop stop-opacity="1" stop-color="rgb(28.601074%, 51.400757%, 18.798828%)" offset="0.578125"/><stop stop-opacity="1" stop-color="rgb(28.797913%, 51.597595%, 18.798828%)" offset="0.59375"/><stop stop-opacity="1" stop-color="rgb(28.996277%, 51.795959%, 18.798828%)" offset="0.625"/><stop stop-opacity="1" stop-color="rgb(28.999329%, 51.799011%, 18.798828%)" offset="0.640625"/><stop stop-opacity="1" stop-color="rgb(28.999329%, 51.898193%, 18.798828%)" offset="0.648438"/><stop stop-opacity="1" stop-color="rgb(29.000854%, 52.098083%, 18.798828%)" offset="0.65625"/><stop stop-opacity="1" stop-color="rgb(29.197693%, 52.198792%, 18.798828%)" offset="0.6875"/><stop stop-opacity="1" stop-color="rgb(29.493713%, 52.272034%, 18.798828%)" offset="0.695313"/><stop stop-opacity="1" stop-color="rgb(29.696655%, 52.42157%, 18.798828%)" offset="0.703125"/><stop stop-opacity="1" stop-color="rgb(29.798889%, 52.49939%, 18.798828%)" offset="0.71875"/><stop stop-opacity="1" stop-color="rgb(29.798889%, 52.49939%, 18.798828%)" offset="0.75"/><stop stop-opacity="1" stop-color="rgb(29.899597%, 52.600098%, 18.798828%)" offset="0.765625"/><stop stop-opacity="1" stop-color="rgb(30.102539%, 52.799988%, 18.798828%)" offset="0.78125"/><stop stop-opacity="1" stop-color="rgb(30.400085%, 52.89917%, 18.798828%)" offset="0.796875"/><stop stop-opacity="1" stop-color="rgb(30.596924%, 53.092957%, 18.798828%)" offset="0.8125"/><stop stop-opacity="1" stop-color="rgb(30.696106%, 53.292847%, 18.798828%)" offset="0.820313"/><stop stop-opacity="1" stop-color="rgb(30.89447%, 53.29895%, 18.798828%)" offset="0.828125"/><stop stop-opacity="1" stop-color="rgb(30.801392%, 53.29895%, 18.798828%)" offset="0.84375"/><stop stop-opacity="1" stop-color="rgb(30.702209%, 53.29895%, 18.798828%)" offset="0.851562"/><stop stop-opacity="1" stop-color="rgb(30.899048%, 53.303528%, 18.798828%)" offset="0.859375"/><stop stop-opacity="1" stop-color="rgb(30.999756%, 53.503418%, 18.798828%)" offset="0.875"/><stop stop-opacity="1" stop-color="rgb(31.193542%, 53.69873%, 18.798828%)" offset="0.890625"/><stop stop-opacity="1" stop-color="rgb(31.393433%, 53.701782%, 18.798828%)" offset="0.90625"/><stop stop-opacity="1" stop-color="rgb(31.399536%, 53.900146%, 18.798828%)" offset="0.921875"/><stop stop-opacity="1" stop-color="rgb(31.399536%, 54.096985%, 18.798828%)" offset="0.9375"/><stop stop-opacity="1" stop-color="rgb(31.495667%, 54.098511%, 18.798828%)" offset="0.945313"/><stop stop-opacity="1" stop-color="rgb(31.695557%, 54.098511%, 18.798828%)" offset="0.953125"/><stop stop-opacity="1" stop-color="rgb(31.799316%, 54.098511%, 18.798828%)" offset="0.96875"/><stop stop-opacity="1" stop-color="rgb(31.799316%, 54.199219%, 18.798828%)" offset="0.976562"/><stop stop-opacity="1" stop-color="rgb(31.803894%, 54.399109%, 18.798828%)" offset="0.984375"/><stop stop-opacity="1" stop-color="rgb(32.003784%, 54.499817%, 18.798828%)" offset="1"/></linearGradient><clipPath id="e022410b7a"><path d="M 135.835938 266.628906 L 271.964844 266.628906 L 271.964844 470.449219 L 135.835938 470.449219 Z M 135.835938 266.628906 " clip-rule="nonzero"/></clipPath><clipPath id="a507de4ae2"><path d="M 271.847656 266.738281 C 234.046875 278.550781 136.363281 275.769531 135.914062 388.195312 L 135.90625 470.425781 L 144.429688 470.425781 L 144.429688 388.652344 C 273.113281 383.953125 263.507812 275.082031 271.847656 266.738281 Z M 271.847656 266.738281 " clip-rule="nonzero"/></clipPath><clipPath id="2742a21453"><path d="M 271.847656 266.738281 C 234.046875 278.550781 136.363281 275.769531 135.914062 388.195312 L 135.90625 470.425781 L 144.429688 470.425781 L 144.429688 388.652344 C 273.113281 383.953125 263.507812 275.078125 271.847656 266.738281 " clip-rule="nonzero"/></clipPath><clipPath id="519fe0b685"><path d="M 238.8125 207.324219 L 47.707031 317.660156 L 170.207031 529.835938 L 361.3125 419.503906 Z M 238.8125 207.324219 " clip-rule="nonzero"/></clipPath><linearGradient x1="-0.349291" gradientTransform="matrix(66.962474, 115.98188, -115.982406, 66.96217, 166.207143, 303.257593)" y1="0" x2="1.47582" gradientUnits="userSpaceOnUse" y2="0" id="52eb0b2e27"><stop stop-opacity="1" stop-color="rgb(24.299622%, 47.499084%, 18.798828%)" offset="0"/><stop stop-opacity="1" stop-color="rgb(24.299622%, 47.499084%, 18.798828%)" offset="0.125"/><stop stop-opacity="1" stop-color="rgb(24.299622%, 47.499084%, 18.798828%)" offset="0.1875"/><stop stop-opacity="1" stop-color="rgb(24.487305%, 47.639465%, 18.798828%)" offset="0.203125"/><stop stop-opacity="1" stop-color="rgb(24.687195%, 47.790527%, 18.798828%)" offset="0.21875"/><stop stop-opacity="1" stop-color="rgb(24.890137%, 47.990417%, 18.791199%)" offset="0.234375"/><stop stop-opacity="1" stop-color="rgb(25.090027%, 48.190308%, 18.791199%)" offset="0.25"/><stop stop-opacity="1" stop-color="rgb(25.271606%, 48.371887%, 18.798828%)" offset="0.265625"/><stop stop-opacity="1" stop-color="rgb(25.471497%, 48.571777%, 18.798828%)" offset="0.273438"/><stop stop-opacity="1" stop-color="rgb(25.686646%, 48.599243%, 18.798828%)" offset="0.28125"/><stop stop-opacity="1" stop-color="rgb(25.886536%, 48.786926%, 18.798828%)" offset="0.296875"/><stop stop-opacity="1" stop-color="rgb(26.071167%, 48.986816%, 18.798828%)" offset="0.304687"/><stop stop-opacity="1" stop-color="rgb(26.271057%, 48.999023%, 18.798828%)" offset="0.3125"/><stop stop-opacity="1" stop-color="rgb(26.298523%, 48.999023%, 18.798828%)" offset="0.328125"/><stop stop-opacity="1" stop-color="rgb(26.475525%, 49.176025%, 18.621826%)" offset="0.335938"/><stop stop-opacity="1" stop-color="rgb(26.675415%, 49.375916%, 18.59436%)" offset="0.34375"/><stop stop-opacity="1" stop-color="rgb(26.699829%, 49.398804%, 18.769836%)" offset="0.359375"/><stop stop-opacity="1" stop-color="rgb(26.879883%, 49.580383%, 18.798828%)" offset="0.367188"/><stop stop-opacity="1" stop-color="rgb(27.079773%, 49.780273%, 18.798828%)" offset="0.375"/><stop stop-opacity="1" stop-color="rgb(27.288818%, 49.987793%, 18.798828%)" offset="0.40625"/><stop stop-opacity="1" stop-color="rgb(27.488708%, 50.37384%, 18.798828%)" offset="0.421875"/><stop stop-opacity="1" stop-color="rgb(27.648926%, 50.584412%, 18.798828%)" offset="0.4375"/><stop stop-opacity="1" stop-color="rgb(27.973938%, 50.773621%, 18.798828%)" offset="0.453125"/><stop stop-opacity="1" stop-color="rgb(28.173828%, 50.973511%, 18.798828%)" offset="0.46875"/><stop stop-opacity="1" stop-color="rgb(28.388977%, 51.18866%, 18.798828%)" offset="0.484375"/><stop stop-opacity="1" stop-color="rgb(28.588867%, 51.38855%, 18.798828%)" offset="0.5"/><stop stop-opacity="1" stop-color="rgb(28.75824%, 51.557922%, 18.798828%)" offset="0.515625"/><stop stop-opacity="1" stop-color="rgb(28.95813%, 51.757812%, 18.798828%)" offset="0.53125"/><stop stop-opacity="1" stop-color="rgb(28.999329%, 51.96228%, 18.798828%)" offset="0.546875"/><stop stop-opacity="1" stop-color="rgb(29.176331%, 52.16217%, 18.798828%)" offset="0.5625"/><stop stop-opacity="1" stop-color="rgb(29.544067%, 52.325439%, 18.798828%)" offset="0.578125"/><stop stop-opacity="1" stop-color="rgb(29.766846%, 52.474976%, 18.798828%)" offset="0.59375"/><stop stop-opacity="1" stop-color="rgb(29.951477%, 52.49939%, 18.798828%)" offset="0.601562"/><stop stop-opacity="1" stop-color="rgb(30.151367%, 52.668762%, 18.798828%)" offset="0.609375"/><stop stop-opacity="1" stop-color="rgb(30.198669%, 52.868652%, 18.798828%)" offset="0.625"/><stop stop-opacity="1" stop-color="rgb(30.374146%, 52.89917%, 18.798828%)" offset="0.640625"/><stop stop-opacity="1" stop-color="rgb(30.743408%, 53.067017%, 18.798828%)" offset="0.648437"/><stop stop-opacity="1" stop-color="rgb(30.799866%, 53.266907%, 18.798828%)" offset="0.65625"/><stop stop-opacity="1" stop-color="rgb(30.793762%, 53.460693%, 18.798828%)" offset="0.664062"/><stop stop-opacity="1" stop-color="rgb(30.961609%, 53.660583%, 18.798828%)" offset="0.671875"/><stop stop-opacity="1" stop-color="rgb(31.150818%, 53.69873%, 18.798828%)" offset="0.679688"/><stop stop-opacity="1" stop-color="rgb(31.350708%, 53.69873%, 18.798828%)" offset="0.6875"/><stop stop-opacity="1" stop-color="rgb(31.399536%, 53.860474%, 18.798828%)" offset="0.695312"/><stop stop-opacity="1" stop-color="rgb(31.399536%, 54.060364%, 18.798828%)" offset="0.703125"/><stop stop-opacity="1" stop-color="rgb(31.575012%, 54.098511%, 18.798828%)" offset="0.71875"/><stop stop-opacity="1" stop-color="rgb(31.774902%, 54.244995%, 18.798828%)" offset="0.726562"/><stop stop-opacity="1" stop-color="rgb(31.799316%, 54.444885%, 18.798828%)" offset="0.734375"/><stop stop-opacity="1" stop-color="rgb(31.976318%, 54.499817%, 18.798828%)" offset="0.75"/><stop stop-opacity="1" stop-color="rgb(32.176208%, 54.499817%, 18.798828%)" offset="1"/></linearGradient><clipPath id="01b565fe4f"><path d="M 39.414062 296.535156 L 127.203125 296.535156 L 127.203125 388.804688 L 39.414062 388.804688 Z M 39.414062 296.535156 " clip-rule="nonzero"/></clipPath><clipPath id="667b5b01cf"><path d="M 39.414062 296.535156 C 58.195312 299.8125 113.003906 299.839844 127.203125 388.65625 C 66.125 392.859375 39.414062 296.535156 39.414062 296.535156 Z M 39.414062 296.535156 " clip-rule="nonzero"/></clipPath><clipPath id="b4213d6bb7"><path d="M 39.414062 296.535156 C 58.195312 299.8125 113.003906 299.839844 127.203125 388.65625 C 66.125 392.859375 39.414062 296.535156 39.414062 296.535156 " clip-rule="nonzero"/></clipPath><linearGradient x1="-0.000159831" gradientTransform="matrix(0, -92.253052, 92.253471, 0, 83.30933, 388.789595)" y1="0" x2="0.999998" gradientUnits="userSpaceOnUse" y2="0" id="c91044658a"><stop stop-opacity="1" stop-color="rgb(24.299622%, 47.499084%, 18.798828%)" offset="0"/><stop stop-opacity="1" stop-color="rgb(24.423218%, 47.592163%, 18.798828%)" offset="0.015625"/><stop stop-opacity="1" stop-color="rgb(24.623108%, 47.743225%, 18.798828%)" offset="0.03125"/><stop stop-opacity="1" stop-color="rgb(24.803162%, 47.799683%, 18.693542%)" offset="0.0625"/><stop stop-opacity="1" stop-color="rgb(25.003052%, 47.897339%, 18.592834%)" offset="0.078125"/><stop stop-opacity="1" stop-color="rgb(25.099182%, 48.097229%, 18.696594%)" offset="0.09375"/><stop stop-opacity="1" stop-color="rgb(25.170898%, 48.271179%, 18.798828%)" offset="0.125"/><stop stop-opacity="1" stop-color="rgb(25.419617%, 48.471069%, 18.798828%)" offset="0.15625"/><stop stop-opacity="1" stop-color="rgb(25.747681%, 48.64502%, 18.798828%)" offset="0.171875"/><stop stop-opacity="1" stop-color="rgb(25.898743%, 48.84491%, 18.798828%)" offset="0.1875"/><stop stop-opacity="1" stop-color="rgb(25.930786%, 48.999023%, 18.798828%)" offset="0.203125"/><stop stop-opacity="1" stop-color="rgb(26.130676%, 48.999023%, 18.798828%)" offset="0.21875"/><stop stop-opacity="1" stop-color="rgb(26.304626%, 49.005127%, 18.798828%)" offset="0.25"/><stop stop-opacity="1" stop-color="rgb(26.506042%, 49.205017%, 18.798828%)" offset="0.3125"/><stop stop-opacity="1" stop-color="rgb(26.863098%, 49.563599%, 18.798828%)" offset="0.328125"/><stop stop-opacity="1" stop-color="rgb(27.062988%, 49.763489%, 18.798828%)" offset="0.34375"/><stop stop-opacity="1" stop-color="rgb(27.235413%, 49.934387%, 18.798828%)" offset="0.375"/><stop stop-opacity="1" stop-color="rgb(27.435303%, 50.135803%, 18.798828%)" offset="0.40625"/><stop stop-opacity="1" stop-color="rgb(27.520752%, 50.227356%, 18.798828%)" offset="0.421875"/><stop stop-opacity="1" stop-color="rgb(27.670288%, 50.427246%, 18.798828%)" offset="0.4375"/><stop stop-opacity="1" stop-color="rgb(27.886963%, 50.686646%, 18.798828%)" offset="0.46875"/><stop stop-opacity="1" stop-color="rgb(28.086853%, 50.886536%, 18.798828%)" offset="0.5"/><stop stop-opacity="1" stop-color="rgb(28.260803%, 51.060486%, 18.798828%)" offset="0.515625"/><stop stop-opacity="1" stop-color="rgb(28.460693%, 51.260376%, 18.798828%)" offset="0.53125"/><stop stop-opacity="1" stop-color="rgb(28.599548%, 51.399231%, 18.798828%)" offset="0.5625"/><stop stop-opacity="1" stop-color="rgb(28.599548%, 51.423645%, 18.798828%)" offset="0.578125"/><stop stop-opacity="1" stop-color="rgb(28.620911%, 51.623535%, 18.798828%)" offset="0.59375"/><stop stop-opacity="1" stop-color="rgb(28.820801%, 51.799011%, 18.798828%)" offset="0.625"/><stop stop-opacity="1" stop-color="rgb(29.182434%, 51.982117%, 18.798828%)" offset="0.65625"/><stop stop-opacity="1" stop-color="rgb(29.382324%, 52.182007%, 18.798828%)" offset="0.6875"/><stop stop-opacity="1" stop-color="rgb(29.556274%, 52.316284%, 18.798828%)" offset="0.703125"/><stop stop-opacity="1" stop-color="rgb(29.756165%, 52.467346%, 18.798828%)" offset="0.71875"/><stop stop-opacity="1" stop-color="rgb(29.930115%, 52.630615%, 18.798828%)" offset="0.75"/><stop stop-opacity="1" stop-color="rgb(30.189514%, 52.830505%, 18.798828%)" offset="0.78125"/><stop stop-opacity="1" stop-color="rgb(30.458069%, 52.946472%, 18.798828%)" offset="0.8125"/><stop stop-opacity="1" stop-color="rgb(30.639648%, 53.187561%, 18.798828%)" offset="0.84375"/><stop stop-opacity="1" stop-color="rgb(30.839539%, 53.540039%, 18.798828%)" offset="0.875"/><stop stop-opacity="1" stop-color="rgb(31.025696%, 53.72467%, 18.798828%)" offset="0.90625"/><stop stop-opacity="1" stop-color="rgb(31.144714%, 53.845215%, 18.798828%)" offset="0.921875"/><stop stop-opacity="1" stop-color="rgb(31.347656%, 54.017639%, 18.798828%)" offset="0.9375"/><stop stop-opacity="1" stop-color="rgb(31.626892%, 54.112244%, 18.798828%)" offset="0.96875"/><stop stop-opacity="1" stop-color="rgb(31.799316%, 54.31366%, 18.798828%)" offset="0.984375"/><stop stop-opacity="1" stop-color="rgb(31.811523%, 54.499817%, 18.798828%)" offset="0.992188"/><stop stop-opacity="1" stop-color="rgb(32.011414%, 54.499817%, 18.798828%)" offset="1"/></linearGradient><clipPath id="dafecbcd09"><path d="M 79.742188 199 L 147.144531 199 L 147.144531 320.519531 L 79.742188 320.519531 Z M 79.742188 199 " clip-rule="nonzero"/></clipPath><clipPath id="eb55e2964d"><path d="M 84.269531 198.996094 C 84.269531 198.996094 58.320312 293.570312 131.980469 319.351562 C 132.601562 319.566406 133.171875 319.820312 133.808594 320.027344 C 133.777344 319.902344 133.742188 319.738281 133.714844 319.601562 C 133.746094 319.664062 133.773438 319.765625 133.808594 319.804688 C 134.894531 321.015625 135.867188 320.191406 136.453125 319.125 C 136.453125 319.222656 136.453125 319.320312 136.449219 319.410156 C 173.039062 234.765625 105.472656 210.304688 84.269531 198.996094 Z M 84.269531 198.996094 " clip-rule="nonzero"/></clipPath><clipPath id="01c9b12bc1"><path d="M 84.269531 199 C 84.269531 199 58.320312 293.570312 131.980469 319.351562 C 132.597656 319.566406 133.171875 319.820312 133.808594 320.027344 C 133.777344 319.902344 133.742188 319.738281 133.714844 319.601562 C 133.746094 319.664062 133.773438 319.765625 133.808594 319.804688 C 134.894531 321.015625 135.867188 320.191406 136.453125 319.125 C 136.453125 319.226562 136.453125 319.324219 136.449219 319.410156 C 173.039062 234.765625 105.472656 210.304688 84.269531 199 " clip-rule="nonzero"/></clipPath><clipPath id="1773f8bb3f"><path d="M 5.488281 290.511719 L 144.359375 370.691406 L 225.875 229.503906 L 87 149.324219 Z M 5.488281 290.511719 " clip-rule="nonzero"/></clipPath><linearGradient x1="-0.309715" gradientTransform="matrix(41.450175, -71.793485, 71.793813, 41.449988, 89.003017, 296.220933)" y1="0" x2="1.366316" gradientUnits="userSpaceOnUse" y2="0" id="18d9c54ce7"><stop stop-opacity="1" stop-color="rgb(24.299622%, 47.499084%, 18.798828%)" offset="0"/><stop stop-opacity="1" stop-color="rgb(24.299622%, 47.499084%, 18.798828%)" offset="0.125"/><stop stop-opacity="1" stop-color="rgb(24.317932%, 47.512817%, 18.798828%)" offset="0.1875"/><stop stop-opacity="1" stop-color="rgb(24.517822%, 47.662354%, 18.798828%)" offset="0.203125"/><stop stop-opacity="1" stop-color="rgb(24.752808%, 47.853088%, 18.798828%)" offset="0.21875"/><stop stop-opacity="1" stop-color="rgb(24.952698%, 48.052979%, 18.798828%)" offset="0.25"/><stop stop-opacity="1" stop-color="rgb(25.230408%, 48.330688%, 18.798828%)" offset="0.265625"/><stop stop-opacity="1" stop-color="rgb(25.494385%, 48.530579%, 18.798828%)" offset="0.28125"/><stop stop-opacity="1" stop-color="rgb(25.762939%, 48.704529%, 18.798828%)" offset="0.296875"/><stop stop-opacity="1" stop-color="rgb(26.054382%, 48.904419%, 18.798828%)" offset="0.3125"/><stop stop-opacity="1" stop-color="rgb(26.254272%, 48.999023%, 18.798828%)" offset="0.328125"/><stop stop-opacity="1" stop-color="rgb(26.361084%, 49.061584%, 18.798828%)" offset="0.335938"/><stop stop-opacity="1" stop-color="rgb(26.560974%, 49.261475%, 18.798828%)" offset="0.34375"/><stop stop-opacity="1" stop-color="rgb(26.699829%, 49.398804%, 18.798828%)" offset="0.359375"/><stop stop-opacity="1" stop-color="rgb(26.699829%, 49.543762%, 18.798828%)" offset="0.367188"/><stop stop-opacity="1" stop-color="rgb(26.811218%, 49.743652%, 18.798828%)" offset="0.375"/><stop stop-opacity="1" stop-color="rgb(27.011108%, 49.798584%, 18.798828%)" offset="0.390625"/><stop stop-opacity="1" stop-color="rgb(27.099609%, 49.835205%, 18.798828%)" offset="0.398437"/><stop stop-opacity="1" stop-color="rgb(27.102661%, 50.035095%, 18.798828%)" offset="0.40625"/><stop stop-opacity="1" stop-color="rgb(27.272034%, 50.19989%, 18.798828%)" offset="0.414063"/><stop stop-opacity="1" stop-color="rgb(27.468872%, 50.19989%, 18.798828%)" offset="0.421875"/><stop stop-opacity="1" stop-color="rgb(27.558899%, 50.27771%, 18.798828%)" offset="0.4375"/><stop stop-opacity="1" stop-color="rgb(27.708435%, 50.4776%, 18.798828%)" offset="0.453125"/><stop stop-opacity="1" stop-color="rgb(27.958679%, 50.759888%, 18.798828%)" offset="0.46875"/><stop stop-opacity="1" stop-color="rgb(28.158569%, 50.959778%, 18.798828%)" offset="0.484375"/><stop stop-opacity="1" stop-color="rgb(28.283691%, 51.083374%, 18.798828%)" offset="0.492187"/><stop stop-opacity="1" stop-color="rgb(28.483582%, 51.283264%, 18.798828%)" offset="0.5"/><stop stop-opacity="1" stop-color="rgb(28.599548%, 51.533508%, 18.798828%)" offset="0.53125"/><stop stop-opacity="1" stop-color="rgb(28.707886%, 51.733398%, 18.798828%)" offset="0.539062"/><stop stop-opacity="1" stop-color="rgb(28.907776%, 51.799011%, 18.798828%)" offset="0.546875"/><stop stop-opacity="1" stop-color="rgb(28.999329%, 51.806641%, 18.798828%)" offset="0.5625"/><stop stop-opacity="1" stop-color="rgb(29.139709%, 52.006531%, 18.798828%)" offset="0.578125"/><stop stop-opacity="1" stop-color="rgb(29.3396%, 52.198792%, 18.798828%)" offset="0.59375"/><stop stop-opacity="1" stop-color="rgb(29.464722%, 52.24762%, 18.798828%)" offset="0.601562"/><stop stop-opacity="1" stop-color="rgb(29.664612%, 52.398682%, 18.798828%)" offset="0.609375"/><stop stop-opacity="1" stop-color="rgb(29.798889%, 52.49939%, 18.798828%)" offset="0.625"/><stop stop-opacity="1" stop-color="rgb(29.949951%, 52.648926%, 18.798828%)" offset="0.632812"/><stop stop-opacity="1" stop-color="rgb(30.149841%, 52.848816%, 18.798828%)" offset="0.640625"/><stop stop-opacity="1" stop-color="rgb(30.255127%, 52.89917%, 18.798828%)" offset="0.65625"/><stop stop-opacity="1" stop-color="rgb(30.455017%, 53.088379%, 18.798828%)" offset="0.671875"/><stop stop-opacity="1" stop-color="rgb(30.651855%, 53.288269%, 18.798828%)" offset="0.6875"/><stop stop-opacity="1" stop-color="rgb(30.851746%, 53.379822%, 18.798828%)" offset="0.703125"/><stop stop-opacity="1" stop-color="rgb(31.045532%, 53.579712%, 18.798828%)" offset="0.710938"/><stop stop-opacity="1" stop-color="rgb(31.245422%, 53.69873%, 18.798828%)" offset="0.71875"/><stop stop-opacity="1" stop-color="rgb(31.399536%, 53.866577%, 18.798828%)" offset="0.734375"/><stop stop-opacity="1" stop-color="rgb(31.503296%, 54.066467%, 18.798828%)" offset="0.75"/><stop stop-opacity="1" stop-color="rgb(31.703186%, 54.136658%, 18.798828%)" offset="0.765625"/><stop stop-opacity="1" stop-color="rgb(31.993103%, 54.336548%, 18.798828%)" offset="0.78125"/><stop stop-opacity="1" stop-color="rgb(32.192993%, 54.499817%, 18.798828%)" offset="0.8125"/><stop stop-opacity="1" stop-color="rgb(32.199097%, 54.499817%, 18.798828%)" offset="0.875"/><stop stop-opacity="1" stop-color="rgb(32.199097%, 54.499817%, 18.798828%)" offset="1"/></linearGradient><clipPath id="95d52c9676"><path d="M 120.652344 381.992188 L 142.296875 381.992188 L 142.296875 414.910156 L 120.652344 414.910156 Z M 120.652344 381.992188 " clip-rule="nonzero"/></clipPath><clipPath id="c5c4efb543"><path d="M 142.273438 414.910156 L 135.8125 414.707031 C 135.984375 409.25 133.183594 403.554688 131.0625 399.738281 C 129.722656 397.339844 128.171875 394.925781 126.425781 392.558594 C 125.523438 391.328125 124.503906 390.261719 123.480469 389.183594 C 122.507812 388.160156 121.542969 387.136719 120.652344 386.023438 L 125.695312 381.992188 C 126.476562 382.96875 127.324219 383.855469 128.171875 384.746094 C 129.371094 386.011719 130.558594 387.285156 131.625 388.734375 C 133.535156 391.320312 135.234375 393.964844 136.703125 396.597656 C 139.191406 401.078125 142.496094 407.847656 142.273438 414.910156 Z M 142.273438 414.910156 " clip-rule="nonzero"/></clipPath><clipPath id="4ee1efb0f4"><path d="M 142.273438 414.910156 L 135.8125 414.707031 C 135.984375 409.25 133.183594 403.554688 131.0625 399.738281 C 129.722656 397.339844 128.171875 394.925781 126.425781 392.558594 C 125.523438 391.328125 124.503906 390.261719 123.480469 389.183594 C 122.507812 388.160156 121.542969 387.136719 120.652344 386.023438 L 125.695312 381.992188 C 126.476562 382.96875 127.324219 383.855469 128.171875 384.746094 C 129.371094 386.011719 130.558594 387.285156 131.625 388.734375 C 133.535156 391.320312 135.234375 393.964844 136.703125 396.597656 C 139.191406 401.078125 142.496094 407.847656 142.273438 414.910156 " clip-rule="nonzero"/></clipPath><linearGradient x1="0.0000124314" gradientTransform="matrix(21.634658, 0, 0, 21.634558, 120.650729, 398.450647)" y1="0" x2="1.00057" gradientUnits="userSpaceOnUse" y2="0" id="25bfce5755"><stop stop-opacity="1" stop-color="rgb(24.299622%, 47.499084%, 18.798828%)" offset="0"/><stop stop-opacity="1" stop-color="rgb(24.493408%, 47.644043%, 18.798828%)" offset="0.015625"/><stop stop-opacity="1" stop-color="rgb(24.693298%, 47.793579%, 18.798828%)" offset="0.03125"/><stop stop-opacity="1" stop-color="rgb(24.699402%, 47.799683%, 18.605042%)" offset="0.0625"/><stop stop-opacity="1" stop-color="rgb(24.891663%, 47.990417%, 18.405151%)" offset="0.078125"/><stop stop-opacity="1" stop-color="rgb(25.091553%, 48.190308%, 18.585205%)" offset="0.09375"/><stop stop-opacity="1" stop-color="rgb(25.099182%, 48.199463%, 18.785095%)" offset="0.125"/><stop stop-opacity="1" stop-color="rgb(25.291443%, 48.391724%, 18.798828%)" offset="0.15625"/><stop stop-opacity="1" stop-color="rgb(25.669861%, 48.591614%, 18.798828%)" offset="0.171875"/><stop stop-opacity="1" stop-color="rgb(25.87738%, 48.770142%, 18.798828%)" offset="0.1875"/><stop stop-opacity="1" stop-color="rgb(26.069641%, 48.970032%, 18.798828%)" offset="0.21875"/><stop stop-opacity="1" stop-color="rgb(26.269531%, 48.999023%, 18.798828%)" offset="0.25"/><stop stop-opacity="1" stop-color="rgb(26.463318%, 49.163818%, 18.634033%)" offset="0.265625"/><stop stop-opacity="1" stop-color="rgb(26.663208%, 49.363708%, 18.603516%)" offset="0.28125"/><stop stop-opacity="1" stop-color="rgb(26.699829%, 49.577332%, 18.766785%)" offset="0.3125"/><stop stop-opacity="1" stop-color="rgb(26.860046%, 49.777222%, 18.798828%)" offset="0.328125"/><stop stop-opacity="1" stop-color="rgb(27.059937%, 49.798584%, 18.798828%)" offset="0.34375"/><stop stop-opacity="1" stop-color="rgb(27.099609%, 49.954224%, 18.798828%)" offset="0.375"/><stop stop-opacity="1" stop-color="rgb(27.276611%, 50.15564%, 18.798828%)" offset="0.40625"/><stop stop-opacity="1" stop-color="rgb(27.587891%, 50.3479%, 18.798828%)" offset="0.421875"/><stop stop-opacity="1" stop-color="rgb(27.761841%, 50.547791%, 18.798828%)" offset="0.4375"/><stop stop-opacity="1" stop-color="rgb(27.799988%, 50.59967%, 18.798828%)" offset="0.46875"/><stop stop-opacity="1" stop-color="rgb(27.94342%, 50.743103%, 18.798828%)" offset="0.484375"/><stop stop-opacity="1" stop-color="rgb(28.143311%, 50.942993%, 18.798828%)" offset="0.5"/><stop stop-opacity="1" stop-color="rgb(28.337097%, 51.13678%, 18.798828%)" offset="0.53125"/><stop stop-opacity="1" stop-color="rgb(28.536987%, 51.33667%, 18.798828%)" offset="0.5625"/><stop stop-opacity="1" stop-color="rgb(28.599548%, 51.528931%, 18.798828%)" offset="0.578125"/><stop stop-opacity="1" stop-color="rgb(28.726196%, 51.728821%, 18.798828%)" offset="0.59375"/><stop stop-opacity="1" stop-color="rgb(28.926086%, 51.799011%, 18.798828%)" offset="0.625"/><stop stop-opacity="1" stop-color="rgb(28.999329%, 51.919556%, 18.798828%)" offset="0.640625"/><stop stop-opacity="1" stop-color="rgb(29.119873%, 52.119446%, 18.798828%)" offset="0.65625"/><stop stop-opacity="1" stop-color="rgb(29.319763%, 52.198792%, 18.798828%)" offset="0.6875"/><stop stop-opacity="1" stop-color="rgb(29.51355%, 52.284241%, 18.798828%)" offset="0.703125"/><stop stop-opacity="1" stop-color="rgb(29.71344%, 52.435303%, 18.798828%)" offset="0.71875"/><stop stop-opacity="1" stop-color="rgb(29.911804%, 52.610779%, 18.798828%)" offset="0.75"/><stop stop-opacity="1" stop-color="rgb(30.111694%, 52.810669%, 18.798828%)" offset="0.78125"/><stop stop-opacity="1" stop-color="rgb(30.303955%, 52.89917%, 18.798828%)" offset="0.796875"/><stop stop-opacity="1" stop-color="rgb(30.505371%, 52.998352%, 18.798828%)" offset="0.8125"/><stop stop-opacity="1" stop-color="rgb(30.700684%, 53.198242%, 18.798828%)" offset="0.84375"/><stop stop-opacity="1" stop-color="rgb(30.79834%, 53.396606%, 18.798828%)" offset="0.859375"/><stop stop-opacity="1" stop-color="rgb(30.897522%, 53.596497%, 18.798828%)" offset="0.875"/><stop stop-opacity="1" stop-color="rgb(31.108093%, 53.69873%, 18.798828%)" offset="0.90625"/><stop stop-opacity="1" stop-color="rgb(31.199646%, 53.788757%, 18.798828%)" offset="0.921875"/><stop stop-opacity="1" stop-color="rgb(31.289673%, 53.988647%, 18.798828%)" offset="0.9375"/><stop stop-opacity="1" stop-color="rgb(31.481934%, 54.098511%, 18.798828%)" offset="0.953125"/><stop stop-opacity="1" stop-color="rgb(31.681824%, 54.182434%, 18.798828%)" offset="0.96875"/><stop stop-opacity="1" stop-color="rgb(31.881714%, 54.382324%, 18.798828%)" offset="1"/></linearGradient></defs><path fill="#593d29" d="M 36.890625 500.421875 C 36.890625 420.367188 113.636719 395.734375 140.15625 467.734375 C 171.898438 423.207031 198.90625 467.734375 198.90625 467.734375 C 198.90625 447.851562 278.945312 394.789062 278.945312 500.421875 L 36.890625 500.421875 " fill-opacity="1" fill-rule="nonzero"/><path fill="#f2f2f0" d="M 48.246094 484.21875 C 48.246094 484.21875 48.082031 482.902344 47.804688 480.609375 C 47.632812 479.46875 47.640625 478.054688 47.734375 476.390625 C 47.734375 474.710938 47.949219 472.847656 48.34375 470.855469 C 48.59375 468.8125 49.316406 466.722656 49.988281 464.472656 C 50.863281 462.316406 51.628906 459.90625 52.945312 457.714844 C 54.113281 455.4375 55.488281 453.175781 57.042969 450.984375 C 57.8125 449.894531 58.683594 448.875 59.507812 447.796875 C 60.007812 447.210938 60.167969 446.875 60.945312 446.070312 L 62.320312 444.675781 C 64 442.84375 66.566406 441.117188 68.808594 439.429688 C 71.171875 438.050781 73.449219 436.65625 75.863281 435.722656 C 78.234375 434.699219 80.566406 433.828125 82.90625 433.371094 C 84.0625 433.109375 85.164062 432.796875 86.257812 432.601562 C 87.371094 432.523438 88.453125 432.449219 89.488281 432.382812 C 91.535156 432.101562 93.441406 432.34375 95.109375 432.640625 C 96.769531 432.820312 98.171875 433.121094 99.261719 433.710938 C 101.46875 434.675781 102.59375 435.25 102.59375 435.25 C 102.59375 435.25 101.28125 435.15625 98.992188 434.964844 C 97.914062 434.734375 96.550781 434.910156 95.023438 435.113281 C 93.507812 435.238281 91.847656 435.449219 90.039062 436.042969 C 88.226562 436.472656 86.332031 437.082031 84.371094 437.96875 C 82.367188 438.644531 80.40625 439.789062 78.347656 440.832031 C 76.261719 441.796875 74.398438 443.390625 72.320312 444.574219 C 70.542969 446.054688 68.703125 447.183594 66.875 449.242188 L 65.46875 450.59375 C 65.308594 450.699219 64.734375 451.449219 64.386719 451.84375 C 63.605469 452.808594 62.769531 453.734375 62.035156 454.714844 C 60.601562 456.703125 59.046875 458.574219 57.84375 460.566406 C 55.292969 464.472656 53.273438 468.355469 51.890625 471.875 C 50.4375 475.402344 49.609375 478.378906 49.078125 480.679688 C 48.554688 482.925781 48.246094 484.21875 48.246094 484.21875 " fill-opacity="1" fill-rule="nonzero"/><path fill="#f2f2f0" d="M 209.648438 482.65625 C 209.648438 482.65625 209.246094 481.675781 208.652344 479.957031 C 208.28125 479.125 208.175781 477.984375 208.023438 476.628906 C 207.785156 475.246094 207.90625 473.761719 208.0625 472.113281 C 208.152344 470.445312 208.675781 468.734375 209.179688 466.894531 C 209.871094 465.160156 210.488281 463.222656 211.589844 461.484375 C 212.550781 459.65625 213.753906 457.910156 215.078125 456.207031 C 216.402344 454.636719 218.082031 452.808594 219.550781 451.511719 C 220.933594 450.144531 222.957031 448.816406 224.710938 447.515625 C 226.582031 446.394531 228.433594 445.335938 230.355469 444.601562 C 234.113281 442.941406 237.929688 442.28125 241.117188 442.03125 C 242.703125 441.785156 244.1875 441.984375 245.464844 441.980469 C 246.75 441.96875 247.863281 442.171875 248.78125 442.316406 C 250.601562 442.605469 251.617188 442.835938 251.617188 442.835938 C 251.617188 442.835938 250.609375 443.113281 248.84375 443.601562 C 247.976562 443.800781 246.921875 444.054688 245.742188 444.433594 C 244.578125 444.84375 243.230469 445.097656 241.847656 445.667969 C 240.464844 446.203125 238.949219 446.664062 237.453125 447.394531 C 235.914062 448.015625 234.394531 448.855469 232.832031 449.710938 C 231.234375 450.484375 229.816406 451.730469 228.242188 452.65625 C 226.832031 453.828125 225.40625 454.730469 223.910156 456.269531 C 222.277344 457.636719 221.167969 458.789062 219.824219 460.242188 C 218.675781 461.691406 217.347656 463 216.390625 464.5 C 215.308594 465.921875 214.476562 467.398438 213.589844 468.796875 C 212.957031 470.257812 212.074219 471.609375 211.65625 472.964844 C 211.203125 474.316406 210.648438 475.574219 210.480469 476.699219 C 210.265625 477.820312 209.886719 478.859375 209.917969 479.792969 C 209.785156 481.605469 209.648438 482.65625 209.648438 482.65625 " fill-opacity="1" fill-rule="nonzero"/><path fill="#674c2a" d="M 95.710938 482.632812 C 86.054688 486.898438 68.988281 486.136719 67.367188 472.777344 C 66.140625 462.734375 76.367188 451.910156 84.828125 448.160156 C 95.40625 443.457031 110.300781 441.175781 114.015625 455.164062 C 117.316406 467.585938 105.839844 478.15625 95.710938 482.632812 " fill-opacity="1" fill-rule="nonzero"/><path fill="#674c2a" d="M 182.84375 468.390625 C 182.609375 469.152344 182.261719 469.953125 181.800781 470.800781 C 175.753906 481.824219 146.367188 482.632812 153.84375 465.882812 C 159.402344 453.410156 186.980469 455.148438 182.84375 468.390625 " fill-opacity="1" fill-rule="nonzero"/><path fill="#674c2a" d="M 252.34375 483.105469 C 243.660156 487.730469 230.949219 488.226562 226.886719 480.601562 C 223.449219 474.144531 226.140625 464.972656 230.945312 460.054688 C 235.882812 455 243.554688 452.554688 250.125 455.925781 C 255.296875 458.570312 261.960938 467.59375 260.703125 473.699219 C 259.925781 477.519531 256.621094 480.820312 252.34375 483.105469 " fill-opacity="1" fill-rule="nonzero"/><g clip-path="url(#5c46231fee)"><g clip-path="url(#5982f8900c)"><g clip-path="url(#8f19bf7e67)"><path fill="url(#c713400b21)" d="M 131.738281 317.496094 L 131.738281 369.558594 L 144.425781 369.558594 L 144.425781 317.496094 Z M 131.738281 317.496094 " fill-rule="nonzero"/></g></g></g><g clip-path="url(#e022410b7a)"><g clip-path="url(#a507de4ae2)"><g clip-path="url(#2742a21453)"><g clip-path="url(#519fe0b685)"><path fill="url(#52eb0b2e27)" d="M 237.949219 207.824219 L 47.707031 317.660156 L 169.921875 529.339844 L 360.164062 419.503906 Z M 237.949219 207.824219 " fill-rule="nonzero"/></g></g></g></g><g clip-path="url(#01b565fe4f)"><g clip-path="url(#667b5b01cf)"><g clip-path="url(#b4213d6bb7)"><path fill="url(#c91044658a)" d="M 39.414062 388.804688 L 127.203125 388.804688 L 127.203125 296.535156 L 39.414062 296.535156 Z M 39.414062 388.804688 " fill-rule="nonzero"/></g></g></g><g clip-path="url(#dafecbcd09)"><g clip-path="url(#eb55e2964d)"><g clip-path="url(#01c9b12bc1)"><g clip-path="url(#1773f8bb3f)"><path fill="url(#18d9c54ce7)" d="M 27.121094 290.140625 L 130.292969 349.707031 L 199.765625 229.378906 L 96.589844 169.8125 Z M 27.121094 290.140625 " fill-rule="nonzero"/></g></g></g></g><path fill="#346229" d="M 142.675781 379.027344 C 142.675781 379.027344 143.316406 376.601562 144.59375 372.410156 C 145.960938 368.265625 147.6875 362.210938 150.554688 355.21875 C 151.855469 351.667969 153.6875 347.976562 155.535156 344.039062 C 157.632812 340.214844 159.683594 336.070312 162.492188 332.164062 C 165.039062 328.101562 168.21875 324.257812 171.492188 320.417969 C 173.246094 318.617188 175.027344 316.785156 176.808594 314.953125 C 178.886719 312.863281 180.6875 311.628906 182.640625 309.925781 C 186.28125 306.652344 191.027344 304.019531 195.308594 301.25 C 199.757812 298.875 204.160156 296.59375 208.535156 294.800781 C 217.253906 291.03125 225.566406 288.304688 232.605469 285.828125 C 236.121094 284.585938 239.359375 283.445312 242.214844 282.433594 C 245.101562 281.484375 247.535156 280.476562 249.539062 279.609375 C 253.566406 277.949219 255.9375 277.070312 255.9375 277.070312 C 255.9375 277.070312 253.847656 278.449219 250.085938 280.734375 C 248.226562 281.890625 245.929688 283.257812 243.199219 284.628906 C 240.480469 286.046875 237.441406 287.738281 234.015625 289.25 C 227.253906 292.527344 219.175781 295.902344 210.910156 299.964844 C 206.691406 301.863281 202.671875 304.382812 198.464844 306.617188 C 194.578125 309.269531 190.511719 311.457031 186.734375 314.914062 C 184.910156 316.457031 182.582031 318.101562 181.179688 319.546875 C 179.464844 321.25 177.773438 322.953125 176.078125 324.636719 C 172.976562 328.242188 169.695312 331.636719 167.132812 335.421875 C 164.339844 339.039062 162.039062 342.828125 159.738281 346.351562 C 157.710938 350.058594 155.542969 353.441406 153.898438 356.777344 C 150.433594 363.34375 147.632812 368.910156 145.757812 372.871094 C 143.84375 376.808594 142.675781 379.027344 142.675781 379.027344 " fill-opacity="1" fill-rule="nonzero"/><path fill="#346229" d="M 152.636719 357.777344 C 152.636719 357.777344 153.042969 356.753906 153.851562 355.023438 C 154.148438 354.125 155.140625 353.292969 156.097656 352.179688 C 157.085938 350.976562 158.457031 350.328125 159.929688 349.285156 C 161.472656 348.570312 163.195312 347.621094 165.105469 347.179688 C 166.996094 346.597656 169.027344 346.148438 171.152344 345.941406 C 173.265625 345.757812 175.464844 345.523438 177.683594 345.679688 L 179.355469 345.757812 L 181.125 345.984375 L 184.308594 346.421875 C 186.382812 346.699219 188.554688 347.265625 190.695312 347.863281 C 192.917969 348.425781 194.816406 349.101562 196.730469 349.65625 C 198.65625 350.21875 200.496094 350.90625 202.160156 351.277344 C 203.851562 351.652344 205.449219 352.308594 206.96875 352.5 C 208.484375 352.75 209.90625 353.0625 211.175781 353.339844 C 212.453125 353.457031 213.5625 353.570312 214.480469 353.648438 C 216.386719 353.875 217.472656 354.011719 217.472656 354.011719 C 217.472656 354.011719 216.464844 354.378906 214.601562 354.925781 C 213.679688 355.175781 212.527344 355.574219 211.199219 355.8125 C 209.871094 355.949219 208.335938 356.109375 206.65625 356.195312 C 204.960938 356.402344 203.164062 356.140625 201.226562 356.007812 C 199.230469 355.894531 197.332031 355.582031 195.371094 355.175781 C 193.390625 354.777344 191.261719 354.441406 189.40625 353.964844 C 187.484375 353.484375 185.5 353.03125 183.324219 352.796875 L 180.171875 352.25 L 178.792969 352.011719 L 177.300781 351.894531 C 175.332031 351.730469 173.367188 351.605469 171.492188 351.605469 C 169.605469 351.640625 167.789062 351.652344 166.085938 351.878906 C 164.371094 352.003906 162.839844 352.4375 161.351562 352.695312 C 160.0625 353.265625 158.519531 353.484375 157.605469 354.117188 C 156.664062 354.761719 155.515625 355.011719 154.882812 355.773438 C 153.480469 357.074219 152.636719 357.777344 152.636719 357.777344 " fill-opacity="1" fill-rule="nonzero"/><path fill="#346229" d="M 172 327.921875 C 172 327.921875 172.914062 327.152344 174.5 325.824219 C 175.34375 325.210938 176.214844 324.324219 177.507812 323.617188 C 178.75 322.863281 180.171875 321.988281 181.789062 321.109375 C 183.445312 320.378906 185.253906 319.589844 187.210938 318.839844 C 189.316406 318.25 191.148438 317.652344 193.847656 317.171875 C 196.042969 317.039062 198.214844 316.65625 200.59375 316.699219 C 203.042969 316.898438 205.699219 317 208.054688 317.359375 C 210.375 317.789062 212.679688 318.226562 214.964844 318.65625 C 216.070312 318.867188 217.171875 319.105469 218.257812 319.371094 L 219.722656 319.695312 L 221.351562 319.972656 C 223.460938 320.21875 225.671875 320.917969 227.425781 320.898438 C 229.257812 320.925781 231.023438 321.375 232.679688 321.210938 C 234.324219 321.101562 235.882812 321.074219 237.289062 321.046875 C 238.664062 320.839844 239.875 320.660156 240.867188 320.511719 C 242.929688 320.257812 244.101562 320.109375 244.101562 320.109375 C 244.101562 320.109375 243.113281 320.734375 241.269531 321.730469 C 240.347656 322.210938 239.238281 322.871094 237.875 323.441406 C 236.496094 323.898438 234.898438 324.410156 233.121094 324.890625 C 231.359375 325.484375 229.296875 325.480469 227.152344 325.710938 C 224.894531 326.011719 222.945312 325.71875 220.722656 325.617188 L 219.085938 325.511719 L 217.253906 325.296875 C 216.128906 325.160156 214.996094 324.996094 213.855469 324.792969 C 211.628906 324.453125 209.363281 324.09375 207.097656 323.742188 C 204.867188 323.328125 202.871094 323.226562 200.773438 322.921875 C 198.5 322.898438 196.265625 322.863281 194.101562 322.835938 C 192.128906 323.0625 190.21875 323.285156 188.398438 323.492188 C 186.550781 323.925781 184.757812 324.257812 183.082031 324.570312 C 181.496094 325.066406 179.984375 325.453125 178.628906 325.808594 C 177.261719 326.125 176.09375 326.660156 175.113281 326.949219 C 173.125 327.566406 172 327.921875 172 327.921875 " fill-opacity="1" fill-rule="nonzero"/><path fill="#346229" d="M 210.742188 298.050781 C 210.742188 298.050781 213.523438 297.300781 217.691406 296.640625 C 218.734375 296.492188 219.863281 296.324219 221.0625 296.214844 C 222.277344 296.152344 223.449219 295.742188 224.710938 295.585938 C 227.21875 295.105469 229.875 294.78125 232.539062 294.449219 C 235.167969 293.871094 237.792969 293.253906 240.3125 292.867188 C 241.542969 292.570312 242.84375 292.605469 243.925781 292.183594 C 245.042969 291.839844 246.117188 291.574219 247.117188 291.328125 C 251.132812 290.371094 254.0625 289.984375 254.0625 289.984375 C 254.0625 289.984375 251.832031 291.707031 248.125 293.914062 C 247.199219 294.464844 246.183594 295.050781 245.078125 295.609375 C 244.011719 296.28125 242.734375 296.539062 241.46875 296.96875 C 238.914062 297.800781 236.132812 298.515625 233.347656 299.230469 C 230.480469 299.488281 227.601562 299.757812 224.917969 299.839844 C 222.214844 300.050781 219.800781 299.714844 217.703125 299.414062 C 213.53125 298.789062 210.742188 298.050781 210.742188 298.050781 " fill-opacity="1" fill-rule="nonzero"/><path fill="#68b330" d="M 141.324219 374.453125 C 141.324219 374.453125 141.296875 372.035156 141.414062 367.816406 C 141.371094 365.703125 141.789062 363.167969 142.226562 360.195312 C 142.539062 357.191406 143.308594 353.902344 144.386719 350.386719 C 145.207031 346.761719 146.929688 343.148438 148.488281 339.195312 C 150.441406 335.46875 152.226562 331.292969 154.914062 327.539062 C 157.347656 323.59375 160.234375 319.789062 163.316406 316.035156 C 164.886719 314.1875 166.605469 312.453125 168.25 310.636719 C 169.160156 309.722656 169.777344 308.878906 170.921875 307.898438 L 173.59375 305.472656 C 176.984375 302.269531 181.4375 299.257812 185.484375 296.605469 C 187.597656 295.390625 189.6875 294.183594 191.765625 292.988281 C 193.929688 291.984375 196.0625 291.003906 198.171875 290.035156 C 202.683594 288.078125 206.683594 287.175781 210.679688 285.828125 C 214.527344 284.625 218.5 283.378906 221.984375 282.546875 C 228.964844 280.714844 234.867188 279.464844 238.957031 278.464844 C 243.066406 277.519531 245.441406 277.070312 245.441406 277.070312 C 245.441406 277.070312 243.230469 278.070312 239.324219 279.667969 C 235.390625 281.195312 229.839844 283.570312 223.070312 286.085938 C 219.652344 287.328125 216.308594 288.8125 212.367188 290.34375 C 208.652344 291.925781 204.210938 293.425781 200.542969 295.199219 C 198.597656 296.207031 196.613281 297.238281 194.617188 298.273438 C 192.710938 299.457031 190.777344 300.65625 188.828125 301.863281 C 185.035156 304.476562 181.457031 306.859375 177.894531 310.289062 L 175.1875 312.671875 C 174.476562 313.214844 173.59375 314.273438 172.808594 315.054688 C 171.214844 316.753906 169.539062 318.378906 168.023438 320.117188 C 165.085938 323.660156 162.058594 327.054688 159.613281 330.707031 C 156.921875 334.191406 154.925781 337.945312 152.773438 341.359375 C 151.070312 344.992188 149.023438 348.269531 147.867188 351.613281 C 146.523438 354.890625 145.289062 357.894531 144.578125 360.667969 C 143.71875 363.417969 142.929688 365.84375 142.660156 367.953125 C 141.867188 372.097656 141.324219 374.453125 141.324219 374.453125 " fill-opacity="1" fill-rule="nonzero"/><path fill="#68b330" d="M 89.9375 206.714844 C 89.9375 206.714844 90.285156 207.003906 90.914062 207.542969 C 91.496094 208.15625 92.601562 208.738281 93.820312 209.515625 C 96.460938 210.957031 100.523438 213.09375 104.949219 215.867188 C 107.199219 217.269531 109.675781 218.6875 112.171875 220.441406 C 114.625 222.304688 117.253906 224.261719 119.882812 226.390625 C 121.210938 227.449219 122.5625 228.523438 123.925781 229.617188 C 125.492188 231.175781 126.324219 232.246094 127.53125 233.632812 C 129.886719 236.039062 131.828125 239.414062 133.828125 242.640625 C 135.855469 245.894531 136.878906 249.347656 138.417969 252.632812 C 139.628906 256.003906 140.417969 259.457031 141.335938 262.726562 C 141.917969 266.066406 142.449219 269.304688 142.808594 272.375 C 143.007812 275.46875 143.109375 278.394531 143.183594 281.074219 C 143.085938 283.769531 142.855469 286.234375 142.660156 288.394531 C 142.558594 290.5625 142.054688 292.429688 141.808594 293.957031 C 141.222656 297.019531 140.789062 298.722656 140.789062 298.722656 C 140.789062 298.722656 140.648438 296.929688 140.558594 293.863281 C 140.484375 292.328125 140.59375 290.484375 140.257812 288.363281 C 139.988281 286.246094 139.71875 283.875 139.484375 281.304688 C 139.003906 278.746094 138.496094 275.996094 138.042969 273.085938 C 137.335938 270.234375 136.589844 267.226562 135.820312 264.117188 C 134.773438 261.109375 133.6875 258.007812 132.589844 254.855469 C 131.132812 251.925781 130.039062 248.574219 128.257812 245.90625 C 126.597656 243.136719 125.21875 240.277344 122.757812 237.644531 C 121.730469 236.367188 120.703125 235.101562 119.691406 233.855469 C 118.46875 232.75 117.265625 231.667969 116.078125 230.59375 C 113.683594 228.476562 111.449219 226.316406 109.292969 224.285156 C 106.972656 222.351562 104.789062 220.523438 102.761719 218.847656 C 98.753906 215.394531 95.414062 212.527344 93.078125 210.519531 C 90.644531 208.332031 90.058594 206.664062 89.9375 206.714844 " fill-opacity="1" fill-rule="nonzero"/><path fill="#68b330" d="M 47.191406 301.789062 C 47.191406 301.789062 48.921875 302.058594 51.902344 302.675781 C 54.84375 303.359375 59.132812 304.15625 64.152344 305.425781 C 64.785156 305.582031 65.429688 305.746094 66.085938 305.898438 C 67.175781 306.195312 67.476562 306.417969 68.226562 306.6875 C 69.515625 307.226562 70.847656 307.78125 72.210938 308.355469 C 73.578125 308.933594 74.976562 309.527344 76.410156 310.128906 C 77.828125 310.820312 79.214844 311.820312 80.65625 312.691406 C 83.484375 314.546875 86.695312 316.21875 89.1875 318.683594 C 91.746094 321.082031 94.742188 323.121094 96.960938 325.941406 C 99.222656 328.746094 101.746094 331.15625 103.714844 334.273438 C 105.625 337.078125 107.378906 339.898438 109.097656 342.65625 C 110.636719 345.652344 112.003906 348.59375 113.304688 351.367188 C 114.769531 354.066406 115.28125 356.949219 116.164062 359.429688 C 116.878906 361.964844 117.796875 364.203125 117.960938 366.371094 C 118.265625 368.480469 118.53125 370.324219 118.753906 371.839844 C 119.152344 374.863281 119.296875 376.578125 119.296875 376.578125 C 119.296875 376.578125 118.59375 374.949219 117.527344 372.128906 C 117.011719 370.722656 116.382812 369.019531 115.664062 367.066406 C 115.074219 365.078125 113.695312 363.089844 112.699219 360.777344 C 111.492188 358.542969 110.613281 355.90625 108.996094 353.527344 C 107.5 351.085938 105.914062 348.535156 104.394531 345.851562 C 102.503906 343.238281 100.554688 340.535156 98.578125 337.792969 C 96.886719 335.195312 94.316406 332.84375 92.234375 330.324219 C 90.238281 327.648438 87.476562 325.730469 85.15625 323.4375 C 82.832031 321.082031 80.21875 319.402344 77.765625 317.5625 C 76.511719 316.675781 75.355469 315.738281 74.085938 314.894531 C 72.734375 314.140625 71.398438 313.390625 70.105469 312.667969 C 68.8125 311.949219 67.558594 311.242188 66.339844 310.554688 C 65.824219 310.265625 64.96875 309.703125 64.757812 309.664062 C 64.125 309.410156 63.523438 309.15625 62.925781 308.90625 C 58.140625 306.957031 54.253906 305.058594 51.484375 303.855469 C 48.730469 302.59375 47.191406 301.789062 47.191406 301.789062 " fill-opacity="1" fill-rule="nonzero"/><path fill="#528b30" d="M 88.125 216.265625 C 88.125 216.265625 70.835938 283.277344 128.683594 309.632812 C 127.070312 261.460938 88.125 216.265625 88.125 216.265625 " fill-opacity="1" fill-rule="nonzero"/><path fill="#346229" d="M 96.402344 221.246094 C 96.402344 221.246094 97.589844 222.476562 99.527344 224.722656 C 101.390625 227.03125 104.3125 230.101562 107.351562 234.183594 C 110.429688 238.246094 114.046875 242.992188 117.332031 248.492188 C 118.976562 251.238281 120.914062 253.933594 122.320312 257.023438 C 123.828125 260.050781 125.359375 263.121094 126.890625 266.195312 C 128.101562 269.429688 129.300781 272.660156 130.488281 275.84375 C 131.855469 278.960938 132.207031 282.363281 133.078125 285.460938 C 133.867188 288.597656 134.570312 291.640625 134.742188 294.605469 C 135.066406 297.550781 135.292969 300.332031 135.492188 302.890625 C 135.84375 305.433594 135.496094 307.808594 135.429688 309.890625 C 135.3125 311.964844 135.214844 313.769531 135.125 315.265625 C 134.9375 318.230469 134.742188 319.90625 134.742188 319.90625 C 134.742188 319.90625 134.367188 318.222656 133.871094 315.304688 C 133.636719 313.847656 133.359375 312.082031 133.035156 310.058594 C 132.648438 308.054688 132.496094 305.761719 131.816406 303.332031 C 131.21875 300.902344 130.582031 298.28125 130.003906 295.5 C 129.53125 292.695312 128.476562 289.875 127.585938 286.921875 C 126.59375 283.992188 125.914062 280.878906 124.597656 277.902344 C 123.414062 274.886719 122.195312 271.832031 120.980469 268.773438 C 118.160156 262.808594 115.464844 256.777344 112.417969 251.3125 C 110.910156 248.582031 109.664062 245.824219 108.183594 243.355469 C 106.753906 240.859375 105.464844 238.457031 104.277344 236.234375 C 101.886719 231.757812 99.886719 228.03125 98.488281 225.429688 C 97.109375 222.796875 96.402344 221.246094 96.402344 221.246094 " fill-opacity="1" fill-rule="nonzero"/><path fill="#346229" d="M 98.824219 281.371094 C 98.84375 281.320312 99.21875 282.019531 100.136719 282.714844 C 100.902344 283.433594 102.449219 284.160156 104.210938 284.949219 C 105.121094 285.332031 106.109375 285.746094 107.148438 286.1875 C 108.210938 286.601562 109.328125 287.042969 110.476562 287.496094 C 112.859375 288.394531 115.3125 289.53125 117.773438 290.644531 C 118.976562 291.1875 120.171875 291.726562 121.351562 292.269531 C 122.597656 292.789062 123.765625 293.519531 124.925781 294.148438 C 127.203125 295.519531 129.253906 297.042969 130.671875 298.757812 C 131.429688 299.554688 132.003906 300.378906 132.378906 301.207031 C 132.800781 301.996094 133.167969 302.652344 133.296875 303.289062 C 133.636719 304.519531 133.726562 305.179688 133.726562 305.179688 C 133.726562 305.179688 133.210938 304.644531 132.480469 303.75 C 131.753906 302.863281 130.464844 301.835938 128.839844 300.851562 C 127.261719 299.820312 125.21875 298.910156 123.003906 297.953125 C 120.664062 297.007812 118.160156 296.007812 115.660156 294.996094 C 113.238281 293.785156 110.8125 292.59375 108.617188 291.316406 C 107.582031 290.765625 106.347656 290.015625 105.429688 289.347656 C 104.441406 288.679688 103.53125 287.988281 102.722656 287.277344 C 101.070312 285.902344 99.960938 284.441406 99.347656 283.230469 C 98.769531 282.078125 98.90625 281.363281 98.824219 281.371094 " fill-opacity="1" fill-rule="nonzero"/><path fill="#346229" d="M 88.125 225.683594 C 88.125 225.683594 88.34375 226.207031 88.640625 227.136719 C 88.734375 227.648438 89.164062 228.074219 89.453125 228.609375 C 89.722656 229.128906 90.300781 229.65625 90.738281 230.28125 C 91.722656 231.5 93.167969 232.675781 94.703125 233.929688 C 95.460938 234.570312 96.308594 235.160156 97.148438 235.800781 C 98.035156 236.460938 98.785156 237.019531 99.75 237.601562 C 101.554688 238.875 103.351562 239.808594 105.136719 241.011719 C 106.914062 242.144531 108.484375 243.4375 109.707031 244.675781 C 110.925781 245.898438 111.710938 247.164062 112.125 248.066406 C 112.554688 248.980469 112.746094 249.488281 112.746094 249.488281 C 112.746094 249.488281 112.332031 249.109375 111.625 248.441406 C 111.011719 247.710938 109.832031 246.972656 108.546875 246.074219 C 107.253906 245.148438 105.527344 244.40625 103.734375 243.476562 C 101.945312 242.601562 99.808594 241.507812 97.964844 240.296875 C 94.175781 237.75 90.878906 234.457031 89.242188 231.289062 C 88.839844 230.496094 88.472656 229.820312 88.335938 229.035156 C 88.207031 228.308594 87.957031 227.710938 88.027344 227.226562 C 88.0625 226.25 88.125 225.683594 88.125 225.683594 " fill-opacity="1" fill-rule="nonzero"/><path fill="#346229" d="M 90.144531 252.320312 C 90.144531 252.320312 90.6875 252.847656 91.636719 253.777344 C 92.535156 254.792969 93.992188 255.824219 95.796875 257.039062 C 99.386719 259.5 104.949219 261.375 110.453125 263.945312 C 115.828125 266.398438 121.441406 269.371094 124.496094 273.089844 C 125.335938 273.914062 125.898438 274.84375 126.324219 275.714844 C 126.820312 276.527344 127.167969 277.265625 127.324219 277.941406 C 127.710938 279.238281 127.875 279.957031 127.875 279.957031 C 127.875 279.957031 127.46875 279.324219 126.765625 278.21875 C 126.136719 277.097656 124.859375 275.738281 123.214844 274.386719 C 119.960938 271.550781 114.527344 269.398438 109.070312 266.863281 C 103.753906 264.414062 98.09375 261.75 94.671875 258.46875 C 92.941406 256.941406 91.757812 255.242188 91.132812 254.148438 C 90.507812 252.984375 90.144531 252.320312 90.144531 252.320312 " fill-opacity="1" fill-rule="nonzero"/><g clip-path="url(#95d52c9676)"><g clip-path="url(#c5c4efb543)"><g clip-path="url(#4ee1efb0f4)"><path fill="url(#25bfce5755)" d="M 120.652344 381.992188 L 120.652344 414.910156 L 142.296875 414.910156 L 142.296875 381.992188 Z M 120.652344 381.992188 " fill-rule="nonzero"/></g></g></g><path fill="#346229" d="M 145.535156 384.003906 C 145.535156 384.003906 147.441406 383.621094 150.769531 383.109375 C 152.441406 382.863281 154.464844 382.570312 156.789062 382.230469 C 159.132812 382 161.671875 381.261719 164.421875 380.613281 C 167.105469 379.984375 170.011719 379.3125 173.089844 378.589844 C 176.207031 377.492188 179.484375 376.332031 182.875 375.132812 C 186.371094 374.117188 189.558594 372.371094 193.015625 371.046875 C 194.722656 370.339844 196.449219 369.632812 198.175781 368.917969 L 203.25 366.535156 C 206.910156 365.074219 209.722656 363.066406 212.957031 361.382812 C 215.921875 359.230469 219.148438 357.558594 221.824219 355.285156 C 224.640625 353.195312 227.316406 351.097656 229.714844 348.929688 C 232.214844 346.875 234.378906 344.683594 236.480469 342.761719 C 238.59375 340.847656 240.347656 338.90625 242.042969 337.296875 C 243.734375 335.683594 245.105469 334.179688 246.234375 332.9375 C 248.527344 330.484375 249.921875 329.121094 249.921875 329.121094 C 249.921875 329.121094 248.996094 330.8125 247.230469 333.703125 C 246.347656 335.148438 245.269531 336.898438 243.894531 338.820312 C 242.535156 340.746094 241.144531 343.054688 239.226562 345.253906 C 237.378906 347.507812 235.46875 350.058594 233.054688 352.40625 C 231.886719 353.621094 230.683594 354.867188 229.460938 356.144531 C 228.121094 357.316406 226.765625 358.511719 225.378906 359.722656 C 222.664062 362.238281 219.453125 364.359375 216.304688 366.644531 C 212.90625 368.539062 209.390625 370.964844 205.933594 372.402344 L 200.546875 374.796875 C 198.726562 375.507812 196.917969 376.210938 195.117188 376.90625 C 191.53125 378.253906 187.972656 379.734375 184.496094 380.5625 C 181.019531 381.472656 177.660156 382.363281 174.460938 383.1875 C 170.792969 383.742188 167.816406 383.96875 164.832031 384.28125 C 161.90625 384.609375 159.246094 384.84375 156.90625 384.613281 C 154.5625 384.515625 152.515625 384.425781 150.835938 384.359375 C 147.464844 384.191406 145.535156 384.003906 145.535156 384.003906 " fill-opacity="1" fill-rule="nonzero"/><path fill="#346229" d="M 71.648438 350.242188 C 71.648438 350.242188 74.851562 352.523438 79.234375 356.332031 C 81.414062 358.226562 83.8125 360.722656 86.4375 363.101562 C 87.726562 364.320312 89.101562 365.527344 90.410156 366.84375 C 91.734375 368.15625 93.277344 369.144531 94.703125 370.328125 L 96.835938 372.097656 L 97.363281 372.539062 C 97.386719 372.566406 97.699219 372.796875 97.472656 372.644531 L 97.777344 372.828125 L 99.015625 373.546875 C 100.671875 374.421875 102.222656 375.613281 103.78125 376.351562 C 106.835938 377.707031 109.730469 379.117188 112.480469 380.105469 C 115.160156 381.207031 117.394531 382.125 118.964844 382.773438 C 120.535156 383.425781 121.417969 383.871094 121.417969 383.871094 C 121.417969 383.871094 117.507812 383.757812 111.71875 382.777344 C 108.820312 382.394531 105.429688 381.402344 101.757812 380.105469 C 100.003906 379.394531 98.40625 378.515625 96.71875 377.617188 L 95.457031 376.9375 L 95.148438 376.769531 C 94.703125 376.507812 94.855469 376.558594 94.671875 376.441406 L 94.09375 375.988281 L 91.722656 374.128906 C 90.207031 372.824219 88.539062 371.644531 87.199219 370.242188 C 85.851562 368.847656 84.597656 367.398438 83.359375 366.039062 C 80.875 363.296875 78.976562 360.582031 77.226562 358.230469 C 73.761719 353.550781 71.648438 350.242188 71.648438 350.242188 " fill-opacity="1" fill-rule="nonzero"/><path fill="#528b30" d="M 192.757812 341.054688 C 189.378906 340.191406 185.941406 339.65625 182.359375 339.972656 C 178.414062 340.320312 173.683594 342.601562 169.910156 342.476562 C 166.878906 342.382812 165.75 341.101562 168.527344 338.164062 C 181.144531 324.839844 199.433594 328.191406 215.574219 329.820312 C 220.855469 330.351562 228.84375 332.03125 227.546875 339.074219 C 226.835938 342.949219 222.347656 344.800781 218.675781 345.554688 C 209.363281 347.460938 201.238281 343.214844 192.757812 341.054688 " fill-opacity="1" fill-rule="nonzero"/><path fill="#528b30" d="M 238.339844 316.234375 C 235.980469 316.714844 233.457031 316.710938 231.175781 316.617188 C 226.898438 316.429688 222.890625 315.585938 218.808594 314.753906 C 213.914062 313.753906 208.636719 312.699219 203.632812 312.871094 C 202.261719 312.921875 195.914062 314.582031 196.746094 311.5 C 197.285156 309.472656 203.484375 307.21875 205.265625 306.503906 C 208.839844 305.074219 212.726562 304.527344 216.539062 304.183594 C 222.699219 303.625 228.964844 303.515625 235.230469 302.898438 C 237.921875 302.628906 241.847656 302.175781 244.335938 303.4375 C 248.203125 305.398438 246.3125 311.589844 243.496094 313.933594 C 242.023438 315.144531 240.234375 315.84375 238.339844 316.234375 " fill-opacity="1" fill-rule="nonzero"/><path fill="#528b30" d="M 193.042969 359.960938 C 196.265625 361.027344 198.558594 362.3125 197.019531 363.632812 C 194.894531 365.449219 191.878906 364.554688 189.394531 364.890625 C 187.261719 365.175781 185.378906 365.695312 183.191406 365.832031 C 177.164062 366.207031 171.089844 366.960938 165.335938 368.867188 C 162.46875 369.8125 150.617188 378.929688 149.890625 372.46875 C 149.242188 366.683594 160.480469 358.882812 164.953125 357.042969 C 170.652344 354.691406 176.503906 355.933594 182.261719 357.359375 C 183.214844 357.589844 188.902344 358.59375 193.042969 359.960938 " fill-opacity="1" fill-rule="nonzero"/><path fill="#528b30" d="M 53.28125 312.382812 C 63.90625 315.359375 93.550781 317.777344 113.691406 376.667969 C 81.246094 376.742188 53.28125 312.382812 53.28125 312.382812 " fill-opacity="1" fill-rule="nonzero"/><path fill="#4a3328" d="M 151.019531 485.625 C 148.472656 495.617188 136.347656 501.148438 123.914062 497.988281 C 111.484375 494.816406 103.464844 484.15625 106.015625 474.160156 C 108.5625 464.171875 120.691406 458.632812 133.132812 461.808594 C 145.558594 464.964844 153.574219 475.628906 151.019531 485.625 " fill-opacity="1" fill-rule="nonzero"/><path fill="#4a3328" d="M 282.855469 500.554688 C 272.871094 500.816406 258.140625 494.367188 267.9375 482.683594 C 272.464844 477.269531 278.664062 473.632812 285.726562 473.058594 C 295.414062 472.261719 309.023438 473.476562 304.855469 486.214844 C 301.523438 496.417969 293.203125 500.289062 282.855469 500.554688 " fill-opacity="1" fill-rule="nonzero"/><path fill="#4a3328" d="M 36.917969 499.714844 C 28.453125 499.933594 13.519531 495.175781 18.511719 484.074219 C 23.050781 473.964844 36.027344 470.460938 45.460938 477.097656 C 49.644531 480.035156 54.359375 485.5 53.28125 491.039062 C 51.851562 498.457031 43.113281 499.558594 36.917969 499.714844 " fill-opacity="1" fill-rule="nonzero"/><path fill="#4a3328" d="M 198.613281 497.234375 C 183.867188 501.136719 183.292969 484.015625 194.667969 479.722656 C 199.910156 477.742188 207.164062 478.808594 208.449219 484.9375 C 209.90625 491.816406 204.507812 495.671875 198.613281 497.234375 " fill-opacity="1" fill-rule="nonzero"/><path fill="#4a3328" d="M 227.164062 492.46875 C 227.164062 492.46875 227.972656 492.398438 229.359375 492.398438 C 230.734375 492.40625 232.742188 492.488281 234.941406 492.433594 C 236.039062 492.433594 237.214844 492.503906 238.429688 492.34375 C 239.644531 492.167969 240.917969 492.207031 242.175781 491.957031 C 243.441406 491.675781 244.714844 491.3125 246.019531 491.132812 C 247.042969 490.746094 248.964844 490.269531 250.03125 489.71875 C 252.402344 488.835938 254.917969 487.496094 256.957031 486.074219 C 258.074219 485.421875 258.855469 484.511719 259.835938 483.820312 C 260.683594 483.003906 261.359375 482.148438 262.128906 481.394531 C 262.738281 480.503906 263.296875 479.707031 263.792969 478.988281 C 264.371094 478.265625 264.5625 477.515625 264.910156 476.925781 C 265.535156 475.683594 265.910156 474.976562 265.910156 474.976562 C 265.910156 474.976562 266.042969 475.738281 266.167969 477.167969 C 266.167969 477.867188 266.402344 478.800781 266.144531 479.757812 C 265.960938 480.742188 265.804688 481.925781 265.40625 483.136719 C 264.882812 484.265625 264.394531 485.625 263.585938 486.851562 C 262.675781 487.976562 261.898438 489.441406 260.628906 490.417969 C 258.328125 492.742188 255.4375 494.445312 252.148438 495.8125 C 250.410156 496.492188 249.3125 496.652344 247.472656 497.1875 C 245.8125 497.429688 244.144531 497.484375 242.578125 497.609375 C 240.996094 497.730469 239.484375 497.289062 238.082031 497.125 C 236.648438 497 235.394531 496.480469 234.25 496.0625 C 231.910156 495.308594 230.238281 494.339844 229.035156 493.628906 C 227.832031 492.929688 227.164062 492.46875 227.164062 492.46875 " fill-opacity="1" fill-rule="nonzero"/><path fill="#4a3328" d="M 152.636719 482.871094 C 152.664062 482.777344 153.148438 483.742188 154.335938 484.433594 C 155.457031 485.171875 157.316406 485.757812 159.605469 485.957031 C 161.90625 486.128906 164.648438 486.035156 167.539062 485.605469 C 168.984375 485.4375 170.441406 485.035156 171.875 484.730469 C 173.390625 484.324219 174.453125 483.976562 175.632812 483.191406 C 177.210938 482.390625 178.476562 481.558594 179.617188 480.742188 C 180.773438 479.894531 182.019531 478.988281 183.089844 478.0625 C 184.054688 477.039062 185.226562 476.195312 185.964844 475.148438 C 186.859375 474.175781 187.570312 473.203125 188.117188 472.203125 C 188.8125 471.246094 189.121094 470.273438 189.476562 469.371094 C 189.894531 468.464844 190.117188 467.632812 190.160156 466.925781 C 190.414062 465.425781 190.566406 464.578125 190.566406 464.578125 C 190.566406 464.578125 190.910156 465.332031 191.4375 466.847656 C 191.753906 467.609375 191.996094 468.566406 191.929688 469.691406 C 191.960938 470.832031 192.046875 472.191406 191.578125 473.515625 C 191.40625 474.214844 191.21875 474.945312 191.027344 475.691406 C 190.726562 476.382812 190.347656 477.074219 189.988281 477.804688 C 189.320312 479.328125 188.269531 480.625 187.179688 482.015625 C 185.996094 483.292969 184.832031 484.636719 183.320312 485.757812 C 181.785156 486.945312 180.265625 488.007812 178.855469 488.785156 C 177.164062 489.804688 174.957031 490.472656 173.234375 490.800781 C 171.410156 491.171875 169.609375 491.25 167.898438 491.257812 C 164.476562 491.265625 161.25 490.628906 158.65625 489.511719 C 156.027344 488.460938 154.148438 486.75 153.347656 485.234375 C 152.515625 483.75 152.757812 482.871094 152.636719 482.871094 " fill-opacity="1" fill-rule="nonzero"/><path fill="#4a3328" d="M 67.082031 488.523438 C 67.082031 488.523438 68.082031 488.84375 69.785156 489.492188 C 70.597656 489.90625 71.683594 490.117188 72.839844 490.285156 C 74 490.472656 75.167969 490.769531 76.667969 490.792969 C 79.550781 491.03125 82.925781 491.058594 86.511719 490.683594 C 88.304688 490.621094 90.136719 490.238281 91.988281 489.96875 C 93.863281 489.796875 95.652344 489.167969 97.488281 488.773438 C 99.300781 488.148438 100.789062 487.835938 102.6875 486.890625 C 104.542969 486.027344 106.011719 485.40625 107.636719 484.488281 C 110.875 482.832031 113.664062 480.929688 116.113281 479.28125 C 117.207031 478.355469 118.417969 477.632812 119.269531 476.800781 C 120.121094 475.976562 121.042969 475.347656 121.601562 474.6875 C 122.859375 473.390625 123.574219 472.652344 123.574219 472.652344 C 123.574219 472.652344 123.300781 473.632812 122.679688 475.394531 C 121.980469 477.105469 120.683594 479.46875 118.667969 481.96875 C 116.617188 484.394531 113.941406 487.089844 110.628906 489.328125 C 109.035156 490.425781 107.066406 491.730469 105.300781 492.546875 C 103.644531 493.457031 101.234375 494.28125 99.21875 494.996094 C 97.082031 495.386719 94.964844 496 92.851562 496.144531 C 90.738281 496.410156 88.667969 496.457031 86.648438 496.351562 C 82.644531 496.285156 78.890625 495.519531 75.851562 494.398438 C 74.335938 494.007812 72.929688 493.15625 71.773438 492.507812 C 70.554688 491.886719 69.675781 491.242188 69.078125 490.566406 C 67.789062 489.292969 67.082031 488.523438 67.082031 488.523438 " fill-opacity="1" fill-rule="nonzero"/></svg>